<svg xmlns="http://www.w3.org/2000/svg" width="207" height="270" xmlns:xlink="http://www.w3.org/1999/xlink"><defs><rect id="a" width="129.4" height="90" x=".4" y="5.1" rx="12"/><path id="b" d="M0.366649798,33.1219512 L129.74165,33.1219512 L129.74165,83.1309898 C129.74165,89.7534149 124.367713,95.1219512 117.744457,95.1219512 L12.3638423,95.1219512 C5.73797584,95.1219512 0.366649798,89.7552894 0.366649798,83.1309898 L0.366649798,33.1219512 Z"/><rect id="c" width="21.9" height="16" x="95.9" y="13.1" rx="4"/><path id="d" d="M185.5 34.1L176.9 39.1 179.1 29.5 171.5 23.1 181.5 22.2 185.5 13.1 189.4 22.2 199.4 23.1 191.9 29.5 194.1 39.1z"/></defs><g fill="none" fill-rule="evenodd"><path fill="#FFFFFF" d="M0.4 0H206.4V270H0.4z"/><g fill="#E1E4E5"><path d="M10.3185729,0.12195122 L34.2031883,0.12195122 L34.2031883,4.12195122 L10.3185729,4.12195122 L10.3185729,0.12195122 Z M38.1839575,0.12195122 L54.1070344,0.12195122 L54.1070344,4.12195122 L38.1839575,4.12195122 L38.1839575,0.12195122 Z M58.0878036,0.12195122 L74.0108806,0.12195122 L74.0108806,4.12195122 L58.0878036,4.12195122 L58.0878036,0.12195122 Z M77.9916498,0.12195122 L101.876265,0.12195122 L101.876265,4.12195122 L77.9916498,4.12195122 L77.9916498,0.12195122 Z" transform="translate(47.77 194)"/><path d="M0.366649798,16.1219512 L20.270496,16.1219512 L20.270496,20.1219512 L0.366649798,20.1219512 L0.366649798,16.1219512 Z M24.2512652,16.1219512 L32.2128036,16.1219512 L32.2128036,20.1219512 L24.2512652,20.1219512 L24.2512652,16.1219512 Z M36.1935729,16.1219512 L64.0589575,16.1219512 L64.0589575,20.1219512 L36.1935729,20.1219512 L36.1935729,16.1219512 Z M68.0397267,16.1219512 L76.0012652,16.1219512 L76.0012652,20.1219512 L68.0397267,20.1219512 L68.0397267,16.1219512 Z M79.9820344,16.1219512 L111.828188,16.1219512 L111.828188,20.1219512 L79.9820344,20.1219512 L79.9820344,16.1219512 Z" transform="translate(47.77 194)"/></g><g transform="translate(37.817 41)"><use fill="#FFFFFF" xlink:href="#a"/><rect width="125.4" height="86" x="2.4" y="7.1" stroke="#C4CACC" stroke-width="4" rx="12"/><path fill="#C4CACC" fill-rule="nonzero" d="M24.270496,4.12195122 L24.270496,5.12195122 L24.100553,5.12195122 C24.2106154,4.80944997 24.270496,4.47293875 24.270496,4.12195122 Z M36.1743421,5.12195122 L36.1743421,4.12195122 C36.1743421,4.47261705 36.2346521,4.80919627 36.3454005,5.12195122 L36.1743421,5.12195122 Z M20.270496,5.12195122 L20.270496,4.12195122 C20.270496,3.56966647 20.7236126,3.12195122 21.2711712,3.12195122 L39.1736669,3.12195122 C39.7263246,3.12195122 40.1743421,3.56581604 40.1743421,4.12195122 L40.1743421,5.12195122 L36.3454005,5.12195122 C36.7580748,6.28734891 37.8710765,7.12195122 39.1736669,7.12195122 L21.2711712,7.12195122 C22.5775891,7.12195122 23.6893314,6.28953625 24.100553,5.12195122 L20.270496,5.12195122 Z M20.270496,4.12195122 C20.270496,3.56966647 20.7236126,3.12195122 21.2711712,3.12195122 L39.1736669,3.12195122 C39.7263246,3.12195122 40.1743421,3.56581604 40.1743421,4.12195122 L40.1743421,5.12195122 L20.270496,5.12195122 L20.270496,4.12195122 Z"/><path fill="#FFFFFF" d="M20.8990385,1 C20.8990385,0.44771525 21.3521551,0 21.8997137,0 L39.8022094,0 C40.3548671,0 40.8028846,0.443864822 40.8028846,1 L40.8028846,2 L20.8990385,2 L20.8990385,1 Z"/><use fill="#F9F9F9" xlink:href="#b"/><path stroke="#C4CACC" stroke-width="4" d="M2.3666498,35.1219512 L127.74165,35.1219512 L127.74165,83.1309898 C127.74165,88.6476442 123.264345,93.1219512 117.744457,93.1219512 L12.3638423,93.1219512 C6.84161671,93.1219512 2.3666498,88.6497915 2.3666498,83.1309898 L2.3666498,35.1219512 Z"/><ellipse cx="68" cy="51.1" fill="#F9F9F9" stroke="#C4CACC" stroke-width="4" rx="23.9" ry="24"/><ellipse cx="68" cy="51.1" fill="#F9F9F9" stroke="#ABB3B3" stroke-width="4" opacity=".2" rx="17.9" ry="18"/><use fill="#F9F9F9" xlink:href="#c"/><rect width="19.9" height="14" x="96.9" y="14.1" stroke="#C4CACC" stroke-width="2" rx="4"/><path stroke="#C4CACC" stroke-width="2" d="M98.9 16.1H114.80000000000001V26.1H98.9z" opacity=".2"/><path stroke="#C4CACC" stroke-width="2" d="M101.5 19H113.4V25H101.5z" opacity=".1"/><ellipse cx="16.3" cy="21.1" fill="#C4CACC" rx="4" ry="4"/><ellipse cx="28.2" cy="21.1" fill="#E1E4E5" rx="4" ry="4"/></g><g stroke-linecap="round" stroke-linejoin="round"><use fill="#F0F3F5" xlink:href="#d"/><path stroke="#C4CACC" stroke-width="1.8" d="M185.472419,35.1407176 L193.625576,39.9052162 L195.440772,40.9659709 L194.96718,38.917594 L192.87369,29.8628538 L199.996432,23.7410735 L201.625179,22.3412141 L199.486098,22.1494897 L190.039977,21.3028398 L186.303621,12.7584757 L185.472419,10.8576672 L184.641217,12.7584757 L180.904861,21.3028398 L171.45874,22.1494897 L169.319659,22.3412141 L170.948406,23.7410735 L178.071148,29.8628538 L175.977658,38.917594 L175.504066,40.9659709 L177.319262,39.9052162 L185.472419,35.1407176 Z"/></g></g></svg>